<?xml version="1.0" standalone="no"?>
<!DOCTYPE svg PUBLIC "-//W3C//DTD SVG 1.1//EN" "http://www.w3.org/Graphics/SVG/1.1/DTD/svg11.dtd" >
<svg xmlns="http://www.w3.org/2000/svg">
<metadata>Generated by IcoMoon</metadata>
<defs>
<font id="icomoon" horiz-adv-x="1024">
<font-face units-per-em="1024" ascent="960" descent="-64" />
<missing-glyph horiz-adv-x="1024" />
<glyph unicode="&#x20;" horiz-adv-x="512" d="" />
<glyph unicode="&#xe900;" glyph-name="mima" horiz-adv-x="1050" d="M326.547 466.608c-39.34 0-71.267 32.434-71.267 72.397s31.928 72.397 71.267 72.397c39.38 0 71.267-32.434 71.267-72.397s-31.887-72.397-71.267-72.397zM787.084 538.981c0-39.976-31.928-72.42-71.267-72.42-39.38 0-71.267 32.444-71.267 72.42s31.887 72.42 71.267 72.42c39.34 0 71.267-32.444 71.267-72.42z" />
<glyph unicode="&#xe902;" glyph-name="vip" horiz-adv-x="1380" d="M0.029 38.616c0-50.884 41.194-92.138 92.008-92.138h1196.1c50.812 0 92.008 41.254 92.008 92.138v598.888h-1380.116v-598.888zM858.604 499.567h171.324c39.4 0 69.228-10.168 89.492-30.459 20.239-20.313 30.37-48.758 30.37-85.333s-10.131-65.144-30.37-85.614c-20.262-20.515-50.092-30.55-89.492-30.19h-119.323v-160.252h-52.001v391.848zM664.3 499.567h52.001v-391.848h-52.001v391.848zM286.094 499.567l111.664-339.706h1.076l112.766 339.706h54.18l-139.026-391.848h-59.1l-137.383 391.848h55.823zM1288.137 960h-1196.1c-50.813 0-92.008-41.254-92.008-92.138v-138.219h1380.116v138.219c0 50.884-41.196 92.138-92.008 92.138zM368.061 787.241v0c-0.001-6.366-5.145-11.528-11.503-11.528h-207.016c-6.355 0-11.502 5.163-11.502 11.528v23.035c0 6.366 5.144 11.518 11.502 11.518h207.017c6.357 0 11.502-5.151 11.502-11.518v-23.035zM1077.255 329.969c13.704 12.462 20.53 30.369 20.53 53.806 0 23.394-6.829 41.254-20.53 53.492-13.68 12.271-35.29 18.391-64.851 18.391h-101.799v-143.774h101.799c29.565-0.363 51.171 5.667 64.851 18.086z" />
<glyph unicode="&#xe903;" glyph-name="home_btn_qingchu_download" horiz-adv-x="1092" d="M1013.684-90.229c-9.654 0-14.482 4.827-24.136 14.482l-979.918 979.918c-14.482 14.482-14.482 33.79 0 48.272s33.79 14.482 48.272 0l979.918-979.918c14.482-14.482 14.482-33.79 0-48.272-4.827-14.482-19.309-19.309-24.136-14.482zM33.766-95.056c-9.654 0-14.482 4.827-24.136 14.482-14.482 14.482-14.482 33.79 0 48.272l979.918 979.918c14.482 14.482 33.79 14.482 48.272 0s14.482-33.79 0-48.272l-979.918-979.918c-9.654-9.654-14.482-14.482-24.136-14.482z" />
<glyph unicode="&#xe904;" glyph-name="home_btn_qingchu" d="M855.015 43.809c-14.919 0-29.838 5.682-41.201 17.075l-682.169 682.155c-22.757 22.742-22.757 59.66 0 82.403 22.742 22.772 59.675 22.772 82.417 0l682.155-682.155c22.757-22.757 22.757-59.66 0-82.403-11.364-11.393-26.297-17.075-41.201-17.075zM172.35 43.299c-14.904 0-29.808 5.682-41.201 17.075-22.757 22.742-22.757 59.646 0 82.403l683.16 683.16c22.742 22.772 59.646 22.772 82.403 0 22.772-22.742 22.772-59.646 0-82.403l-683.145-683.16c-11.378-11.393-26.297-17.075-41.216-17.075z" />
<glyph unicode="&#xe905;" glyph-name="search" horiz-adv-x="977" d="M970.659 20.015l-159.465 159.418c-1.862 1.862-4.096 3.119-6.33 4.189 75.729 82.572 122.368 192.186 122.368 312.739 0 255.674-207.965 463.639-463.639 463.639-255.628 0-463.593-207.965-463.593-463.639 0-255.628 207.965-463.593 463.593-463.593 119.436 0 228.119 45.801 310.412 120.227 1.117-2.327 2.374-4.561 4.282-6.47l159.465-159.418c4.561-4.561 10.473-6.796 16.431-6.796s11.916 2.234 16.477 6.796c9.076 9.076 9.076 23.831 0 32.908v0zM463.593 79.313c-229.935 0-417.047 187.113-417.047 417.047 0 229.981 187.113 417.094 417.047 417.094 230.028 0 417.094-187.113 417.094-417.094 0-229.935-187.066-417.047-417.094-417.047v0z" />
<glyph unicode="&#xe906;" glyph-name="home_icon_dingwei_white" horiz-adv-x="878" d="M438.861-39.619c-14.758 0-28.382 7.571-35.757 19.861l-217.53 362.57c-25.691 42.661-39.287 91.337-39.287 140.709 0 155.183 131.25 281.431 292.582 281.431 161.318 0 292.561-126.248 292.561-281.431 0-49.372-13.596-98.048-39.315-140.762l-217.503-362.517c-7.369-12.29-20.999-19.861-35.751-19.861v0zM438.867 685.534c-115.804 0-210.017-90.623-210.017-202.013 0-35.414 9.75-70.325 28.196-100.967l181.814-303.020 181.773 302.973c18.474 30.682 28.23 65.599 28.23 101.013 0 111.39-94.206 202.013-209.996 202.013v0zM438.867 359.232c-71.267 0-129.248 55.751-129.248 124.289 0 68.531 57.981 124.289 129.248 124.289 71.253 0 129.221-55.758 129.221-124.289 0-68.538-57.967-124.289-129.221-124.289v0zM438.867 528.392c-25.74 0-46.683-20.126-46.683-44.871s20.944-44.871 46.683-44.871c25.726 0 46.656 20.126 46.656 44.871s-20.93 44.871-46.656 44.871v0z" />
<glyph unicode="&#xe907;" glyph-name="home_icon_gou" horiz-adv-x="1280" d="M44.996 379.89l436.203-380.080c27.249-23.743 68.74-20.228 91.607 7.761l646.726 791.618c22.363 27.373 18.301 67.691-9.072 90.054s-67.691 18.301-90.054-9.072l-646.726-791.618 91.607 7.761-436.203 380.080c-26.649 23.22-67.076 20.441-90.296-6.208s-20.441-67.076 6.208-90.297v0z" />
<glyph unicode="&#xe908;" glyph-name="info-stars" horiz-adv-x="1117" d="M596.021 925.25c-23.851 46.334-62.871 46.334-86.722 0l-98.755-191.854c-23.851-46.334-87.006-90.328-140.342-97.75l-220.802-30.758c-53.336-7.422-65.389-43.008-26.8-79.073l158.441-148.076c38.598-36.065 62.88-107.266 53.973-158.222l-36.697-209.798c-8.907-50.956 22.92-73.146 70.729-49.302l196.677 98.088c47.819 23.843 125.967 23.684 173.678-0.357l197.51-99.525c47.702-24.041 79.441-2.020 70.524 48.936l-37.089 211.959c-8.917 50.956 15.365 122.157 53.963 158.222l158.441 148.076c38.598 36.065 26.526 71.652-26.8 79.073l-220.841 30.758c-53.336 7.422-116.491 51.416-140.332 97.75l-98.755 191.854z" />
<glyph unicode="&#xe909;" glyph-name="home_icon_star_yellow" horiz-adv-x="1117" d="M596.021 925.25c-23.851 46.334-62.871 46.334-86.722 0l-98.755-191.854c-23.851-46.334-87.006-90.328-140.342-97.75l-220.802-30.758c-53.336-7.422-65.389-43.008-26.8-79.073l158.441-148.076c38.598-36.065 62.88-107.266 53.973-158.222l-36.697-209.798c-8.907-50.956 22.92-73.146 70.729-49.302l196.677 98.088c47.819 23.843 125.967 23.684 173.678-0.357l197.51-99.525c47.702-24.041 79.441-2.020 70.524 48.936l-37.089 211.959c-8.917 50.956 15.365 122.157 53.963 158.222l158.441 148.076c38.598 36.065 26.526 71.652-26.8 79.073l-220.841 30.758c-53.336 7.422-116.491 51.416-140.332 97.75l-98.755 191.854z" />
<glyph unicode="&#xe90a;" glyph-name="home_icon_wifi" horiz-adv-x="1664" d="M135.188 581.934c-15.98 0-31.902 6.116-43.554 18.194-22.050 22.837-20.426 58.326 3.618 79.269 201.541 175.497 463.222 272.132 736.807 272.132 273.452 0 535.030-96.537 736.512-271.851 24.059-20.943 25.684-56.432 3.648-79.283-22.036-22.865-59.431-24.394-83.461-3.465-179.653 156.307-412.859 242.379-656.699 242.379-243.958 0-477.253-86.156-656.95-242.618-11.343-9.889-25.654-14.757-39.921-14.757zM330.082 385.255c-16.911 0-33.689 6.859-45.371 20.143-20.928 23.776-17.575 59.154 7.458 79.030 151.045 119.85 342.764 185.877 539.889 185.877 196.903 0 388.505-65.901 539.461-185.526 25.063-19.849 28.416-55.24 7.518-79.030-20.898-23.804-58.161-26.989-83.21-7.14-129.762 102.835-294.469 159.463-463.769 159.463-169.477 0-334.302-56.727-464.138-159.758-11.047-8.781-24.487-13.060-37.839-13.060zM535.803 192.224c-19.274 0-38.164 8.935-49.492 25.39-17.856 25.951-10.206 60.711 17.103 77.67 97.758 60.711 211.392 92.791 328.645 92.791 112.763 0 222.676-29.836 317.863-86.254 27.678-16.412 36.111-51.032 18.846-77.319-17.295-26.287-53.716-34.297-81.408-17.885-76.401 45.294-164.677 69.253-255.301 69.253-94.213 0-185.502-25.782-263.97-74.5-9.984-6.2-21.194-9.146-32.286-9.146zM891.136-7.736c0-30.987-26.452-56.096-59.077-56.096s-59.077 25.109-59.077 56.096c0 31.001 26.452 56.11 59.077 56.11s59.077-25.109 59.077-56.11z" />
<glyph unicode="&#xe90b;" glyph-name="jdxq_btn_fuwu" d="M979.2 403.2h-192l-108.8 275.2c-6.4 19.2-19.2 32-38.4 44.8-12.8 6.4-32 12.8-51.2 12.8h-19.2c38.4 19.2 64 57.6 64 102.4 0 70.4-51.2 121.6-121.6 121.6-64 0-121.6-51.2-121.6-121.6 0-44.8 25.6-83.2 64-102.4h-6.4c-19.2 0-38.4-6.4-51.2-19.2-19.2-6.4-32-19.2-38.4-38.4l-128-275.2h-198.4c-19.2 0-32-19.2-32-32s12.8-32 32-32h51.2v-358.4c0-19.2 12.8-32 32-32h793.6c19.2 0 32 12.8 32 32v358.4h44.8c19.2 0 32 12.8 32 32s-19.2 32-38.4 32zM454.4 838.4c0 32 25.6 57.6 57.6 57.6s57.6-25.6 57.6-57.6-25.6-51.2-57.6-51.2-57.6 25.6-57.6 51.2zM416 652.8c0 6.4 6.4 12.8 12.8 12.8 6.4 6.4 12.8 6.4 19.2 6.4h147.2c6.4 0 12.8 0 19.2-6.4s6.4-6.4 12.8-12.8l102.4-249.6h-57.6l-64 140.8c-6.4 12.8-25.6 25.6-38.4 19.2s-19.2-19.2-19.2-32c0-6.4 0-6.4 0-12.8l44.8-115.2h-160l51.2 115.2c0 6.4 0 6.4 0 12.8 0 12.8-6.4 25.6-19.2 32-19.2 6.4-38.4 0-44.8-19.2l-57.6-140.8h-57.6l108.8 249.6zM876.8 12.8h-729.6v326.4h729.6v-326.4z" />
<glyph unicode="&#xe90c;" glyph-name="jdxq_btn_jiantouline_down" d="M504.686 155.429c-7.314 0-14.629 0-21.943 7.314l-438.857 504.686c-14.629 14.629-14.629 36.571 0 51.2s29.257 14.629 43.886 0l424.229-482.743 416.914 475.429c14.629 14.629 29.257 14.629 43.886 0s14.629-36.571 0-51.2l-438.857-504.686c-14.629 7.314-21.943 0-29.257 0z" />
<glyph unicode="&#xe90d;" glyph-name="jdxq_btn_jiantouline_left" horiz-adv-x="658" d="M609.398 444.751c0-7.728-3.356-15.455-10.077-21.341l-503.989-441.998c-13.45-11.788-35.238-11.788-48.687 0-13.432 11.78-13.432 30.91 0 42.683l479.654 420.656-479.025 420.105c-13.441 11.773-13.441 30.903 0 42.683 13.441 11.788 35.229 11.788 48.679 0l503.369-441.447c6.721-5.886 10.077-13.621 10.077-21.341z" />
<glyph unicode="&#xe90e;" glyph-name="jdxq_btn_jiantouline_up" d="M475.429 733.257c7.314 0 14.629 0 21.943-7.314l438.857-504.686c14.629-14.629 14.629-36.571 0-51.2s-29.257-14.629-43.886 0l-424.229 482.743-416.914-475.429c-14.629-14.629-29.257-14.629-43.886 0s-14.629 36.571 0 51.2l438.857 504.686c7.314-7.314 21.943 0 29.257 0z" />
<glyph unicode="&#xe90f;" glyph-name="jdxq_btn_jiatong" d="M190.171 411.429h629.029c7.314 0 21.943 7.314 29.257 14.629s7.314 14.629 7.314 29.257l-7.314 263.314c0 80.457-36.571 117.029-109.714 117.029h-460.8c-73.143 0-117.029-36.571-109.714-117.029l-14.629-263.314c0-7.314 0-21.943 7.314-29.257 14.629-7.314 21.943-14.629 29.257-14.629zM234.057 718.629c0 43.886 7.314 43.886 43.886 43.886h460.8c29.257 0 36.571-7.314 36.571-43.886l7.314-226.743h-555.886l7.314 226.743zM768 360.229c-58.514 0-109.714-43.886-109.714-102.4s51.2-109.714 109.714-109.714 109.714 51.2 109.714 109.714-51.2 102.4-109.714 102.4zM768 221.257c-21.943 0-36.571 14.629-36.571 36.571s14.629 36.571 36.571 36.571c21.943 0 36.571-14.629 36.571-36.571s-21.943-36.571-36.571-36.571zM987.429 806.4c0 87.771-73.143 153.6-168.229 153.6h-629.029c-87.771 0-160.914-73.143-160.914-153.6l-29.257-731.429c0-7.314 0-21.943 7.314-29.257s14.629-14.629 29.257-14.629h51.2c0-51.2 43.886-87.771 95.086-87.771h80.457c51.2 0 95.086 36.571 95.086 87.771h299.886c0-51.2 43.886-87.771 95.086-87.771h80.457c51.2 0 95.086 36.571 95.086 87.771h51.2c7.314 0 21.943 7.314 29.257 14.629s7.314 14.629 7.314 29.257l-29.257 731.429zM885.029 104.229c-14.629 0-21.943-7.314-29.257-14.629s-7.314-21.943-7.314-29.257v-21.943c0-7.314-7.314-21.943-21.943-21.943h-80.457c-14.629 0-21.943 7.314-21.943 21.943v29.257c0 7.314 0 21.943-7.314 29.257s-14.629 14.629-29.257 14.629h-365.714c-7.314 0-21.943-7.314-29.257-14.629s-7.314-21.943-7.314-29.257v-21.943c0-7.314-7.314-21.943-21.943-21.943h-80.457c-14.629 0-21.943 7.314-21.943 21.943v29.257c0 7.314 0 21.943-7.314 29.257s-14.629 14.629-29.257 14.629h-51.2l21.943 694.857c7.314 36.571 43.886 73.143 95.086 73.143h629.029c51.2 0 95.086-36.571 95.086-80.457l21.943-694.857h-51.2zM248.686 360.229c-58.514 0-109.714-51.2-109.714-109.714s51.2-109.714 109.714-109.714 109.714 51.2 109.714 109.714-51.2 109.714-109.714 109.714zM248.686 221.257c-21.943 0-36.571 14.629-36.571 36.571s14.629 36.571 36.571 36.571 36.571-14.629 36.571-36.571-21.943-36.571-36.571-36.571z" />
<glyph unicode="&#xe910;" glyph-name="jdxq_btn_jieshao" horiz-adv-x="896" d="M224 652.8h326.4c19.2 0 32 12.8 32 32s-19.2 32-32 32h-326.4c-19.2 0-32-19.2-32-32s12.8-32 32-32zM224 454.4h326.4c19.2 0 32 12.8 32 32s-19.2 32-32 32h-326.4c-19.2 0-32-12.8-32-32s12.8-32 32-32zM224 262.4h326.4c19.2 0 32 12.8 32 32s-19.2 32-32 32h-326.4c-19.2 0-32-12.8-32-32s12.8-32 32-32zM832 403.2h-64v492.8c0 38.4-32 64-64 64h-640c-32 0-64-32-64-64v-793.6c0-12.8 0-70.4 32-108.8 19.2-19.2 51.2-44.8 102.4-44.8h563.2c6.4 0 12.8 0 19.2 0s6.4 0 12.8 0c115.2 0 160 96 160 147.2 0 0 0 6.4 0 6.4v236.8c6.4 32-25.6 64-57.6 64zM697.6 6.4h-563.2c-25.6 0-38.4 6.4-51.2 19.2-19.2 25.6-19.2 64-19.2 70.4v800h633.6v-889.6zM832 96c0 0-6.4-64-64-83.2v326.4h64v-243.2z" />
<glyph unicode="&#xe911;" glyph-name="jdxq_btn_pingjia" horiz-adv-x="1195" d="M1069.511 925.867h-978.489c-45.511 0-79.644-34.133-79.644-79.644v-688.356c0-39.822 34.133-73.956 73.956-73.956h199.111v-119.467c0-11.378 5.689-22.756 17.067-28.444 5.689 0 5.689 0 11.378 0s17.067 5.689 22.756 5.689l136.533 136.533h591.644c39.822 0 73.956 34.133 73.956 73.956v694.044c5.689 45.511-28.444 79.644-68.267 79.644zM1086.578 157.867c0-11.378-11.378-17.067-17.067-17.067h-608.711c-5.689 0-17.067-5.689-22.756-5.689l-96.711-96.711v73.956c0 5.689-5.689 17.067-5.689 22.756-5.689 5.689-11.378 5.689-22.756 5.689h-227.556c-11.378 0-17.067 11.378-17.067 17.067v688.356c0 11.378 11.378 17.067 17.067 17.067h978.489c11.378 0 17.067-11.378 17.067-17.067v-688.356zM893.156 448h-625.778c-17.067 0-28.444-11.378-28.444-28.444s11.378-28.444 28.444-28.444h625.778c17.067 0 28.444 11.378 28.444 28.444s-17.067 28.444-28.444 28.444zM893.156 641.422h-625.778c-17.067 0-28.444-11.378-28.444-28.444s11.378-28.444 28.444-28.444h625.778c17.067 0 28.444 11.378 28.444 28.444s-17.067 28.444-28.444 28.444z" />
<glyph unicode="&#xe912;" glyph-name="jdxq_btn_sheshi" horiz-adv-x="1170" d="M482.743 630.857h-117.029c-21.943 0-36.571-14.629-36.571-36.571v-490.057c0-21.943 14.629-36.571 36.571-36.571h117.029c21.943 0 36.571 14.629 36.571 36.571v490.057c0 21.943-21.943 36.571-36.571 36.571zM446.171 140.8h-43.886v416.914h43.886v-416.914zM782.629 630.857h-109.714c-21.943 0-36.571-14.629-36.571-36.571v-490.057c0-21.943 14.629-36.571 36.571-36.571h117.029c21.943 0 36.571 14.629 36.571 36.571v490.057c-7.314 21.943-21.943 36.571-43.886 36.571zM746.057 140.8h-36.571v416.914h43.886v-416.914zM1141.029 630.857l-548.571 321.829c-7.314 7.314-21.943 7.314-36.571 0l-541.257-329.143c-14.629-7.314-14.629-21.943-14.629-36.571s21.943-29.257 36.571-29.257h102.4v-416.914h-43.886c-21.943 0-36.571-14.629-36.571-36.571v-124.343c0-21.943 14.629-36.571 36.571-36.571h950.857c21.943 0 36.571 14.629 36.571 36.571v124.343c0 21.943-14.629 36.571-36.571 36.571h-36.571v416.914h117.029c0 0 0 0 0 0 21.943 0 36.571 14.629 36.571 36.571 0 14.629-7.314 29.257-21.943 36.571zM1016.686 67.657v-51.2h-877.714v51.2h36.571c21.943 0 36.571 14.629 36.571 36.571v490.057c0 21.943-14.629 36.571-36.571 36.571h-7.314l409.6 248.686 416.914-248.686h-21.943c-21.943 0-36.571-14.629-36.571-36.571v-490.057c0-21.943 14.629-36.571 36.571-36.571h43.886z" />
<glyph unicode="&#xe913;" glyph-name="jdxq_btn_shoucang" horiz-adv-x="1144" d="M809.582 960c-98.815 0-189.57-45.896-247.993-121.538-58.423 75.642-149.168 121.538-247.983 121.538-172.919 0-313.606-140.686-313.606-313.596 0-81.254 31.038-158.345 87.444-217.072l474.145-476.495 465.761 468.063c61.518 59.050 95.828 139.374 95.828 225.505 0 172.91-140.676 313.596-313.596 313.596v0z" />
<glyph unicode="&#xe914;" glyph-name="jdxq_btn_xiangqing" d="M522.779 555.789h-280.253c-16.168 0-26.947-16.168-26.947-26.947s10.779-26.947 26.947-26.947h285.642c16.168 0 26.947 10.779 26.947 26.947s-16.168 26.947-32.337 26.947zM522.779 399.495h-280.253c-16.168 0-26.947-10.779-26.947-26.947s10.779-26.947 26.947-26.947h285.642c16.168 0 26.947 10.779 26.947 26.947s-16.168 26.947-32.337 26.947zM997.053-10.105h-75.453v479.663c0 26.947-21.558 48.505-48.505 48.505h-161.684v350.316c0 37.726-26.947 64.674-64.674 64.674h-506.611c-37.726 0-64.674-26.947-64.674-64.674v-878.484h-75.453c-16.168 0-26.947-10.779-26.947-26.947s10.779-26.947 26.947-26.947h97.011c0 0 5.389 0 5.389 0h587.453c0 0 5.389 0 5.389 0h301.811c16.168 0 26.947 10.779 26.947 26.947s-16.168 26.947-26.947 26.947zM657.516-10.105h-528.168v878.484c0 5.389 5.389 10.779 10.779 10.779h506.611c5.389 0 10.779-5.389 10.779-10.779v-878.484zM867.705-10.105h-150.905v474.274h150.905v-474.274zM522.779 701.305h-280.253c-16.168 0-26.947-10.779-26.947-26.947s10.779-26.947 26.947-26.947h285.642c16.168 0 26.947 10.779 26.947 26.947s-16.168 26.947-32.337 26.947z" />
<glyph unicode="&#xe915;" glyph-name="jdxq_btn_zhence" d="M569.6 678.4c0-31.812-25.788-57.6-57.6-57.6s-57.6 25.788-57.6 57.6c0 31.812 25.788 57.6 57.6 57.6s57.6-25.788 57.6-57.6zM550.4 550.4v38.4h-108.8v-38.4h38.4v-320h-38.4v-38.4h147.2v38.4h-38.4zM512 953.6c-275.2 0-505.6-224-505.6-505.6s224-505.6 505.6-505.6 505.6 224 505.6 505.6-230.4 505.6-505.6 505.6zM512 12.8c-243.2 0-441.6 198.4-441.6 441.6s198.4 441.6 441.6 441.6c243.2 0 441.6-198.4 441.6-441.6s-198.4-441.6-441.6-441.6z" />
<glyph unicode="&#xe916;" glyph-name="jdxq_icon_time" horiz-adv-x="1195" d="M1040.059 834.029h-163.625v86.112c0 21.14-19.004 38.28-42.442 38.28s-42.442-17.14-42.442-38.28v-86.112h-403.201v86.112c0 21.14-19.004 38.28-42.442 38.28s-42.442-17.14-42.442-38.28v-86.112h-169.748c-46.803 0-84.884-34.347-84.884-76.561v-182.071c-0.902-3.12-1.539-6.326-1.539-9.695s0.637-6.584 1.539-9.695v-536.538c0-42.214 38.081-76.561 84.884-76.561h906.343c46.803 0 84.884 34.347 84.884 76.561v737.998c0 42.214-38.081 76.561-84.884 76.561v0zM133.716 757.468h169.748c0-21.14 19.004-38.28 42.442-38.28s42.442 17.14 42.442 38.28h403.201c0-21.14 19.004-38.28 42.442-38.28s42.442 17.14 42.442 38.28h163.625l0.011-153.485h-906.353v153.485zM133.716 19.47v507.952h906.353l0.042-507.952h-906.396zM592.813 352.912l48.214 79.642c11.226 18.556 3.661 41.812-16.913 51.937-20.606 10.125-46.347 3.292-57.594-15.245l-105.511-174.329c-18.526-23.083-29.582-51.353-29.582-81.968 0-77.317 69.733-140.211 155.455-140.211s155.476 62.895 155.476 140.211c0 75.518-66.571 137.111-149.545 139.963v0zM586.882 149.298c-38.92 0-70.571 28.548-70.571 63.651 0 7.666 1.581 14.977 4.34 21.782 1.337 1.569 2.589 3.225 3.682 5.015l8.52 14.087c12.955 13.915 32.362 22.786 54.029 22.786 38.92 0 70.581-28.567 70.581-63.67s-31.662-63.651-70.581-63.651v0z" />
<glyph unicode="&#xe917;" glyph-name="scjd_icon_wujiudian" horiz-adv-x="1097" d="M1073.371-34.743h-98.743v508.343c0 23.771-20.114 43.886-43.886 43.886h-149.943c-10.971 0-20.114-3.657-27.429-9.143v365.714c0 43.886-36.571 78.629-80.457 78.629h-482.743c-43.886 0-78.629-36.571-78.629-80.457v-908.8h-98.743c-5.486 0-9.143-3.657-9.143-9.143s3.657-9.143 9.143-9.143h104.229c1.829 0 1.829 0 3.657 0s1.829 0 3.657 0h616.229c1.829 0 1.829 0 3.657 0s1.829 0 3.657 0h325.486c5.486 0 9.143 3.657 9.143 9.143s-3.657 10.971-9.143 10.971zM753.371 473.6c0 14.629 12.8 25.6 27.429 25.6h149.943c14.629 0 27.429-10.971 27.429-25.6v-508.343h-204.8v504.686c0 0 0 1.829 0 3.657zM128 872.229c0 34.743 27.429 62.171 62.171 62.171h482.743c34.743 0 62.171-27.429 62.171-62.171v-908.8h-607.086v908.8zM570.514 711.314h-303.543c-5.486 0-9.143-3.657-9.143-9.143s3.657-9.143 9.143-9.143h303.543c5.486 0 9.143 3.657 9.143 9.143s-3.657 9.143-9.143 9.143zM570.514 554.057h-303.543c-5.486 0-9.143-3.657-9.143-9.143s3.657-9.143 9.143-9.143h303.543c5.486 0 9.143 3.657 9.143 9.143s-3.657 9.143-9.143 9.143zM570.514 391.314h-303.543c-5.486 0-9.143-3.657-9.143-9.143s3.657-9.143 9.143-9.143h303.543c5.486 0 9.143 3.657 9.143 9.143s-3.657 9.143-9.143 9.143z" />
<glyph unicode="&#xe918;" glyph-name="wddd_icon_wudingdan" horiz-adv-x="918" d="M866.869 372.083h-95.338v534.952c0 24.717-19.421 44.138-42.372 44.138h-676.193c-24.717 0-44.138-19.421-44.138-44.138v-828.028c-1.766-14.124-1.766-61.793 30.014-97.103 14.124-15.89 42.372-37.076 90.041-37.076h651.476c1.766 0 3.531 0 5.297 1.766 88.276 10.593 120.055 84.745 123.586 125.352 0 1.766 0 3.531 0 5.297v252.469c0 22.952-19.421 42.372-42.372 42.372zM752.11-37.517h-623.228c-40.607 0-63.559 15.89-75.917 30.014-28.248 30.014-26.483 72.386-26.483 84.745v829.793c0 14.124 10.593 26.483 24.717 26.483h674.428c14.124 0 24.717-12.359 24.717-26.483v-944.552zM891.586 77.241c0-1.766 0-1.766 0-3.531-3.531-37.076-35.31-107.697-121.821-111.228v391.945h95.338c14.124 0 24.717-12.359 24.717-26.483v-250.703zM566.731 292.634h-344.276c-5.297 0-8.828-3.531-8.828-8.828s3.531-8.828 8.828-8.828h344.276c5.297 0 8.828 3.531 8.828 8.828s-3.531 8.828-8.828 8.828zM566.731 490.372h-344.276c-5.297 0-8.828-3.531-8.828-8.828s3.531-8.828 8.828-8.828h344.276c5.297 0 8.828 3.531 8.828 8.828s-3.531 8.828-8.828 8.828zM566.731 696.938h-344.276c-5.297 0-8.828-3.531-8.828-8.828s3.531-8.828 8.828-8.828h344.276c5.297 0 8.828 3.531 8.828 8.828s-3.531 8.828-8.828 8.828z" />
<glyph unicode="&#xe919;" glyph-name="ddxq_btn_back" horiz-adv-x="569" d="M534.93-56.413c8.686 0 17.381 3.178 24.012 9.525 13.263 12.686 13.263 33.28 0 45.966l-473.29 453.014 472.679 452.413c13.263 12.694 13.263 33.28 0 45.974-13.254 12.694-34.762 12.694-48.033 0l-496.699-475.404c-6.368-6.095-9.951-14.36-9.951-22.983 0-8.615 3.583-16.888 9.951-22.983l497.319-475.997c6.623-6.347 15.318-9.525 24.012-9.525z" />
<glyph unicode="&#xe91a;" glyph-name="ddxq_btn_lianxijiudian" horiz-adv-x="922" d="M279.552 305.893c-152.039 204.438-225.508 351.26-225.508 445.484 0 53.409 22.804 82.185 73.712 117.365l7.404 5.162c22.523 16.1 63.56 26.362 88.498 26.362 17.812 0 26.136-6.665 34.484-23.333 9.58-19.085 69.107-147.75 74.045-160.777 7.261-19.148 2.368-41.468-14.092-53.245l-4.935-3.439c-13.628-9.442-21.387-15.345-30.141-23.85-14.071-13.671-23.44-28.239-26.204-45.016-3.111-18.764 2.773-37.124 16.148-55.13 53.978-72.756 203.182-256.384 229.933-281.353 30.301-28.305 71.913-32.787 101.123-8.163 15.301 12.903 24.437 21.801 30.207 28.148l0.796 0.693c2.634 2.146 11.352 6.054 23.269 6.054 12.244 0 25.297-4.428 39.006-13.697 14.968-10.112 36.882-24.844 63.94-42.993 0.184-0.123 0.184-0.123 0.368-0.247 18.765-12.587 38.87-26.057 58.974-39.517 21.444-14.353 21.444-14.353 26.807-17.94 10.846-9.385 16.241-30.448 3.348-55.048-31.498-60.177-97.418-122.173-147.095-122.173-93.055 0-283.817 128.009-424.087 316.653l-0.001 0.002zM238.467 275.341c148.983-200.361 353.056-337.302 465.174-337.302 74.041 0 153.012 74.27 192.45 149.618 24.631 46.998 12.658 93.752-17.941 119.629-7.654 5.314-7.654 5.314-29.087 19.66-20.093 13.452-40.185 26.914-58.936 39.492-0.184 0.123-0.184 0.123-0.368 0.247-27.015 18.121-48.89 32.827-63.791 42.893-21.776 14.725-44.631 22.478-67.676 22.478-25.5 0-45.156-8.81-57.552-19.264l-3.234-3.042c-5.47-5.936-12.996-13.265-26.49-24.644-7.881-6.644-20.64-5.269-33.177 6.442-23.708 22.129-171.653 204.207-223.766 274.449-5.735 7.721-7.333 12.708-6.744 16.263 1.427 8.662 12.96 19.867 35.053 35.173l5.253 3.663c37.070 26.522 47.411 73.697 32.426 113.214-5.711 15.065-65.851 145.058-76.151 165.575-16.202 32.35-40.222 51.584-80.252 51.584-34.746 0-85.952-12.806-118.030-35.739l-7.069-4.927c-63.349-43.777-95.715-84.618-95.715-159.424 0-108.628 77.366-263.237 235.624-476.038l-0.001 0.002z" />
<glyph unicode="&#xe91b;" glyph-name="ddxq_btn_lianxikefu" horiz-adv-x="1073" d="M944.030 251.733c-13.458 0-24.381 10.874-24.381 24.381 0 13.458 10.923 24.381 24.381 24.381 28.672 0 51.98 22.869 51.98 51.102v85.236c0 28.184-23.308 51.102-51.98 51.102-13.458 0-24.381 10.923-24.381 24.43 0 13.458 10.923 24.332 24.381 24.332 55.54 0 100.742-44.812 100.742-99.864v-85.236c0-55.052-45.202-99.864-100.742-99.864zM121.417 251.733c-55.54 0-100.645 44.812-100.645 99.864v85.236c0 55.052 45.105 99.864 100.645 99.864 13.507 0 24.381-10.874 24.381-24.332 0-13.507-10.874-24.43-24.381-24.43-28.623 0-51.883-22.918-51.883-51.102v-85.236c0-28.233 23.259-51.102 51.883-51.102 13.507 0 24.381-10.923 24.381-24.381 0-13.507-10.874-24.381-24.381-24.381zM931.304 515.535c-13.458 0-24.332 10.923-24.332 24.381 0 188.514-167.887 341.918-374.199 341.918-206.36 0-374.248-153.405-374.248-341.918 0-13.458-10.923-24.381-24.381-24.381s-24.381 10.923-24.381 24.381c0 215.43 189.781 390.632 423.010 390.632s422.961-175.202 422.961-390.632c0-13.458-10.923-24.381-24.43-24.381zM931.304 251.294c-13.458 0-24.332 10.923-24.332 24.381v264.241c0 13.458 10.874 24.381 24.332 24.381 13.507 0 24.43-10.923 24.43-24.381v-264.241c0-13.458-10.923-24.381-24.43-24.381zM134.144 251.294c-13.458 0-24.381 10.923-24.381 24.381v264.241c0 13.458 10.923 24.381 24.381 24.381s24.381-10.923 24.381-24.381v-264.241c0-13.458-10.923-24.381-24.381-24.381zM575.829-44.398h-86.162c-36.425 0-66.121 29.501-66.121 65.682s29.696 65.682 66.121 65.682h86.162c36.376 0 66.072-29.501 66.072-65.682s-29.696-65.682-66.072-65.682v0zM489.667 38.205c-9.557 0-17.359-7.558-17.359-16.92 0-9.314 7.802-16.872 17.359-16.872h86.162c9.557 0 17.31 7.558 17.31 16.872 0 9.362-7.753 16.92-17.31 16.92h-86.162zM553.594-44.642h-63.927c-13.507 0-24.381 10.874-24.381 24.332 0 13.507 10.874 24.43 24.381 24.43h63.927c32.329 0 99.864 14.434 147.456 31.549l107.081 38.522c70.607 31.598 98.84 58.173 98.84 94.013v145.408c0 13.507 10.874 24.381 24.332 24.381 13.507 0 24.43-10.874 24.43-24.381v-145.408c0-71.631-62.22-109.227-129.414-139.264l-108.788-39.156c-53.687-19.31-125.659-34.426-163.938-34.426zM532.773 158.257c-150.284 0-272.53 121.027-272.53 269.848 0 13.458 10.923 24.381 24.381 24.381s24.381-10.923 24.381-24.381c0-121.905 100.352-221.086 223.768-221.086 123.319 0 223.72 99.182 223.72 221.086 0 13.458 10.874 24.381 24.381 24.381 13.458 0 24.381-10.923 24.381-24.381 0-148.821-122.246-269.848-272.482-269.848zM833.731 408.454h-115.517c-13.458 0-24.381 10.874-24.381 24.381v64.122l-82.359-81.481c-4.584-4.535-10.728-7.022-17.164-7.022h-362.545c-13.458 0-24.381 10.874-24.381 24.381v59.782c0 177.64 145.944 322.17 325.388 322.17 179.346 0 325.339-144.53 325.339-322.17v-59.782c0-13.507-10.923-24.381-24.381-24.381v0zM742.595 457.216h66.706v35.401c0 150.772-124.002 273.359-276.529 273.359s-276.626-122.587-276.626-273.359v-35.401h328.168l116.785 115.517c7.022 6.924 17.506 8.875 26.526 5.12 9.070-3.755 14.97-12.629 14.97-22.479v-98.158z" />
<glyph unicode="&#xe91c;" glyph-name="ddxq_btn_xianludaohang" horiz-adv-x="838" d="M516.655 792.436c4.655 13.964 9.309 23.273 9.309 37.236 0 60.509-46.545 107.055-107.055 107.055s-107.055-46.545-107.055-107.055c0-13.964 4.655-27.927 9.309-37.236-186.182-46.545-321.164-214.109-321.164-409.6 0-232.727 186.182-423.564 418.909-423.564s418.909 190.836 418.909 423.564c0 195.491-134.982 363.055-321.164 409.6zM418.909 5.818c-204.8 0-372.364 167.564-372.364 377.018 0 186.182 130.327 344.436 316.509 372.364 9.309 0 13.964 9.309 18.618 13.964 4.655 9.309 0 18.618-4.655 23.273-9.309 4.655-18.618 18.618-18.618 37.236 0 32.582 27.927 60.509 60.509 60.509s60.509-27.927 60.509-60.509c0-18.618-9.309-32.582-13.964-37.236-9.309-9.309-9.309-18.618-4.655-23.273 4.655-9.309 9.309-13.964 18.618-13.964 181.527-27.927 316.509-186.182 316.509-372.364-4.655-209.455-172.218-377.018-377.018-377.018zM605.091 601.6l-269.964-125.673c0 0-4.655-4.655-4.655-4.655v0c0 0 0 0 0 0s0 0 0 0-4.655-4.655-4.655-4.655l-125.673-269.964c-4.655-9.309 0-18.618 4.655-27.927 4.655-4.655 9.309-4.655 18.618-4.655 4.655 0 4.655 0 9.309 0l269.964 130.327c4.655 0 9.309 4.655 9.309 9.309l125.673 269.964c4.655 9.309 0 18.618-4.655 27.927-9.309 0-18.618 4.655-27.927 0zM269.964 229.236l83.782 181.527 97.745-97.745-181.527-83.782zM484.073 350.255l-97.745 97.745 181.527 83.782-83.782-181.527z" />
<glyph unicode="&#xe91d;" glyph-name="ddxq_icon_dingwei" horiz-adv-x="683" d="M337.547-32.247c-17.027 0-32.744 8.802-41.254 23.090l-250.967 421.507c-29.64 49.595-45.326 106.185-45.326 163.582 0 180.409 151.425 327.179 337.555 327.179 186.114 0 337.531-146.771 337.531-327.179 0-57.397-15.685-113.986-45.358-163.643l-250.936-421.446c-8.502-14.288-24.227-23.090-41.246-23.090v0zM337.555 810.783c-133.604 0-242.299-105.354-242.299-234.851 0-41.171 11.248-81.756 32.53-117.379l209.761-352.277 209.714 352.223c21.313 35.669 32.57 76.263 32.57 117.433 0 129.498-108.687 234.851-242.275 234.851v0zM337.555 431.439c-82.222 0-149.115 64.814-149.115 144.493 0 79.671 66.893 144.493 149.115 144.493 82.206 0 149.083-64.822 149.083-144.493 0-79.679-66.878-144.493-149.083-144.493v0zM337.555 628.097c-29.696 0-53.859-23.397-53.859-52.165s24.163-52.165 53.859-52.165c29.68 0 53.827 23.397 53.827 52.165s-24.147 52.165-53.827 52.165v0z" />
<glyph unicode="&#xe91e;" glyph-name="grzx_icon_guanyumike" horiz-adv-x="745" d="M288.127-52.309c-12.95 0-25.817 6.485-39.264 19.755-25.072 24.576-49.483 68.139-58.792 85.76-5.71 0-11.336-0.811-19.57-3.157-32.644-9.429-53.331-9.899-57.179-9.899-33.264 3.627-52.503 15.189-59.702 34.517-10.881 29.227 13.736 58.88 16.549 62.165 10.343 14.763-9.64 41.429-9.847 41.685-1.117 1.451-2.193 3.2-2.938 4.949-40.215 95.872-49.483 283.605-49.814 291.584-5.379 167.125 54.737 318.933 72.859 360.661-11.212 22.528-3.972 42.581 5.668 52.821 10.55 13.952 25.197 21.291 42.532 21.291 15.432 0 29.748-6.059 38.767-10.965 98.676 32.896 205.834 38.997 300.622 17.579 10.385-2.304 21.39-5.888 32.396-9.515 19.528-6.485 40.919-12.885 50.972-9.515 24.7 8.149 58.171 1.237 60.323 0.512 25.403-10.624 34.713-27.179 38.229-39.253 6.454-22.229-1.572-44.544-7.82-57.131 128.548-362.965 39.677-586.923 29.044-611.456-4.344-9.941-7.985-17.664-10.964-23.893-3.062-6.443-6.537-13.739-6.578-15.531 7.82-23.253 3.682-47.616 3.186-50.347-8.399-24.661-26.81-36.949-51.345-36.949-11.709 0-22.921 2.688-30.451 5.035-18.287-8.277-42.325-13.952-56.227-16.811-13.943-28.928-50.228-95.445-88.871-95.445-10.55 0-20.025 4.864-26.645 13.781-12.412 16.725-17.418 43.307-19.404 62.891-14.853-0.896-33.885-0.555-47.497 0.085-0.952-8.448-2.234-19.157-3.931-31.36-6.992-49.963-35.664-53.845-44.311-53.845v0zM189.781 96.085c19.28 0 27.927-8.064 31.361-12.843 1.986-3.456 30.079-59.221 56.227-84.949 4.51-4.437 7.613-6.4 9.35-7.253 1.365 2.432 3.517 7.595 4.758 16.597 4.096 29.312 5.668 49.323 5.751 49.621 0.414 5.675 3.062 10.923 7.24 14.592 4.261 3.669 9.847 5.248 15.143 4.949 0.372-0.043 20.604-1.877 43.484-1.877 15.019 0 27.431 0.768 36.988 2.304 5.751 0.939 11.957-0.768 16.549-4.821s7.282-9.899 7.323-16.128c0.124-16.213 3.103-42.112 9.392-55.637 10.012 7.083 32.23 33.109 52.545 78.805 2.855 6.485 8.606 11.008 15.391 12.203 11.998 2.005 46.504 9.344 62.267 18.432 5.503 3.115 12.205 3.584 17.956 1.067 3.434-1.408 14.357-5.12 23.955-5.12 9.64 0 10.799 3.2 11.585 5.504 0.124 2.56 0.827 14.848-1.738 22.315-6.992 20.224-1.076 32.555 7.778 51.2 2.772 5.845 6.247 13.099 10.302 22.443 4.013 9.216 96.442 229.931-33.389 588.544-2.358 6.528-1.489 13.824 2.317 19.499 3.765 5.888 10.84 21.248 7.985 30.933-0.538 1.707-2.069 6.827-12.743 11.392-0.455-0.085-20.232 3.285-33.554-1.109-21.349-6.997-50.104 0.939-76.21 9.557-9.681 3.2-19.404 6.4-28.548 8.491-90.526 20.267-193.339 13.653-287.63-19.413-6.247-2.176-13.157-1.195-18.535 2.731-4.882 3.413-26.272 15.531-34.795 3.627-0.869-1.28-1.945-2.432-3.103-3.499h0.083c0.579 0 1.407-3.029 4.882-7.595 5.006-6.4 5.958-15.232 2.441-22.656-0.827-1.664-79.52-170.069-73.728-351.189 0.124-1.536 9.061-184.277 45.511-273.92 14.812-20.181 31.444-59.819 7.944-92.885-6.744-8.021-10.757-17.323-10.095-20.096 0 0 3.972-5.035 23.087-7.211-0.869 0.128 15.846 0.299 44.104 8.448 11.461 3.285 21.68 4.949 30.368 4.949v0zM238.313 587.221c-44.932 0-76.831 16.171-78.817 17.195-10.178 5.291-14.274 18.133-9.102 28.672 5.172 10.411 17.46 14.72 27.72 9.472 2.234-1.152 57.054-28.331 120.149 0.384 10.261 4.779 22.631 0 27.265-10.88 4.634-10.752-0.083-23.296-10.55-28.117-27.431-12.544-53.786-16.725-76.666-16.725zM483.824 588.117c-43.318 0-75.962 14.933-78.072 15.915-10.343 4.864-14.936 17.408-10.261 28.16 4.675 10.667 16.756 15.488 27.348 10.709 0.579-0.341 62.598-28.117 120.77 1.963 10.095 5.419 22.631 1.152 27.72-9.429 5.172-10.539 1.076-23.339-9.144-28.629-27.141-14.080-54.406-18.688-78.362-18.688zM371.412 231.083c-37.485 0-67.977 30.208-67.977 67.371s30.492 67.371 67.977 67.371c37.485 0 67.977-30.208 67.977-67.371s-30.492-67.371-67.977-67.371v0zM371.412 323.157c-14.646 0-26.603-11.093-26.603-24.704s11.957-24.704 26.603-24.704c14.688 0 26.603 11.093 26.603 24.704s-11.916 24.704-26.603 24.704v0zM524.040 351.104v0c-42.284 0-83.492 9.813-85.23 10.24-8.73 2.133-15.143 9.771-15.888 18.987s4.344 17.877 12.619 21.461c0.124 0.085 11.75 5.803 22.011 23.125 1.696 2.816 3.558 13.696 4.799 20.907 5.627 32.981 15.97 96.341 94.043 89.003 58.42-5.333 76.748-39.040 82.416-58.667 10.219-35.2-4.344-78.848-34.671-103.637-17.336-14.251-44.311-21.419-80.1-21.419v0zM488.624 396.032c11.005-1.28 23.252-2.261 35.416-2.261 25.486 0 44.808 4.309 54.365 12.16 17.046 13.952 26.19 39.381 20.77 57.984-5.958 20.523-28.507 26.795-46.421 28.416-36.119 3.371-42.739-13.099-49.69-53.931-2.276-13.355-4.427-26.027-10.219-35.755-1.365-2.347-2.772-4.523-4.22-6.613v0z" />
<glyph unicode="&#xe91f;" glyph-name="grzx_icon_kefurexian" horiz-adv-x="935" d="M700.355 17.347c-91.453 0-277.433 122.898-414.115 303.915-147.934 195.887-219.458 336.645-219.458 427.314 0 51.911 22.58 79.97 72.59 114.003l7.182 4.932c22.374 15.75 62.807 25.707 87.582 25.707 18.532 0 27.406-6.998 35.886-23.67 9.334-18.312 67.179-141.437 72.007-153.979 7.359-19.111 2.395-41.414-14.517-53.33l-4.819-3.308c-32.926-22.464-49.382-38.208-53.771-64.444-2.926-17.382 2.621-34.427 15.295-51.23 52.344-69.479 197.213-245.054 223.052-268.805 28.5-26.217 67.282-30.331 94.513-7.726 14.774 12.269 23.572 20.706 29.107 26.702l0.883 0.774c3.128 2.533 12.19 6.533 24.535 6.533 12.506 0 25.729-4.417 39.478-13.572 14.535-9.67 35.819-23.759 62.099-41.119 0.179-0.118 0.179-0.118 0.358-0.236 18.227-12.039 37.754-24.923 57.281-37.797 20.828-13.729 20.828-13.729 26.037-17.16l0.517-0.44c11.117-9.422 16.404-30.692 3.529-54.886-30.982-58.289-95.648-118.179-145.25-118.179v0zM700.355-27.175c70.568 0 146.637 70.452 184.558 141.794 23.223 43.637 12.327 87.466-15.129 110.619l-2.623 2.013c-6.314 4.209-6.314 4.209-27.133 17.931-19.517 12.867-39.034 25.744-57.248 37.776-0.179 0.118-0.179 0.118-0.357 0.236-26.242 17.334-47.492 31.402-61.969 41.033-20.719 13.797-42.375 21.031-64.146 21.031-24 0-42.498-8.165-54.093-17.795l-3.018-2.799c-5.272-5.641-12.659-12.726-25.854-23.683-8.797-7.303-22.827-5.815-35.937 6.244-23.171 21.299-166.93 195.529-217.636 262.833-5.887 7.805-7.608 13.091-6.939 17.060 1.517 9.067 13.011 20.064 35.012 35.074l5.096 3.499c35.058 24.7 44.89 68.871 30.641 105.874-5.516 14.329-63.907 138.616-73.881 158.183-15.367 30.216-37.909 47.991-75.561 47.991-33.198 0-82.363-12.108-112.998-33.676l-6.891-4.73c-60.979-41.497-91.987-80.028-91.987-150.757 0-103.364 74.985-250.931 228.45-454.143 144.276-191.074 341.808-321.607 449.644-321.607v0z" />
<glyph unicode="&#xe920;" glyph-name="grzx_icon_shoucang" horiz-adv-x="1126" d="M808.159 934.4c-99.354 0-192.054-45.745-252.122-123.389h40.496c-60.069 77.646-152.76 123.389-252.113 123.389-175.807 0-318.821-142.779-318.821-318.336 0-82.485 31.596-160.805 88.911-220.381l443.654-445.135c10.003-10.023 26.243-10.022 36.244 0.003l435.496 436.937c62.244 59.64 97.067 141.342 97.067 228.577 0 175.559-143.006 318.336-318.812 318.336v0zM808.159 883.2c147.547 0 267.612-119.873 267.612-267.136 0-73.285-29.131-141.633-81.712-192.022l-435.897-437.33 36.244 0.003-29.79 29.851-413.523 414.936c-47.828 49.721-74.293 115.321-74.293 184.562 0 147.261 120.072 267.136 267.621 267.136 83.463 0 161.218-38.372 211.616-103.518 10.249-13.247 30.248-13.247 40.496 0 50.397 65.144 128.16 103.518 211.625 103.518v0z" />
<glyph unicode="&#xe921;" glyph-name="grzx_icon_wodedingdan" horiz-adv-x="931" d="M739.142-63.616h-573.017c-49.55 0-79 21.12-95.037 38.827-34.317 37.973-33.555 88.192-32.54 102.699l-0.042 785.664c0 29.867 24.288 54.144 54.12 54.144h646.516c29.831 0 54.12-24.277 54.12-54.144v-873.088c0-29.824-24.288-54.101-54.12-54.101v0zM92.625 875.051c-6.516 0-11.806-5.12-11.806-11.477v-787.2c-0.592-8.789-1.989-46.379 21.538-72.405 10.282-11.392 29.662-24.917 63.767-24.917h573.017c6.516 0 11.806 5.12 11.806 11.435v873.088c0 6.357-5.289 11.477-11.806 11.477h-646.516zM772.104-63.616c-11.679 0-21.157 9.515-21.157 21.333 0 11.776 9.478 21.333 21.157 21.333 80.397 0 108.62 61.952 112.301 94.72l0.085 240.725c0 6.315-5.289 11.52-11.763 11.52h-100.623c-11.679 0-21.157 9.515-21.157 21.333 0 11.776 9.478 21.333 21.157 21.333h100.623c29.831 0 54.077-24.32 54.077-54.187v-239.531c0-0.768-0.254-5.077-0.339-5.845-5.162-46.037-44.049-132.736-154.362-132.736zM585.5 633.088h-330.303c-11.679 0-21.157 9.557-21.157 21.333s9.478 21.333 21.157 21.333h330.303c11.679 0 21.157-9.557 21.157-21.333s-9.478-21.333-21.157-21.333zM585.5 438.357h-330.303c-11.679 0-21.157 9.557-21.157 21.333 0 11.819 9.478 21.333 21.157 21.333h330.303c11.679 0 21.157-9.515 21.157-21.333 0-11.776-9.478-21.333-21.157-21.333zM585.5 249.771h-330.303c-11.679 0-21.157 9.515-21.157 21.291 0 11.819 9.478 21.376 21.157 21.376h330.303c11.679 0 21.157-9.557 21.157-21.376 0-11.776-9.478-21.291-21.157-21.291z" />
<glyph unicode="&#xe922;" glyph-name="home_btn_gerenzhongxin" d="M201.054 64.115c-10.952 0-20.458 8.28-21.729 19.451-6.352 55.592-8.411 98.917-8.455 100.801-5.125 162.745 51.912 310.727 69.216 351.599-11.434 23.262-2.847 42.537 5.432 51.737 8.499 11.478 20.064 18.706 33.557 20.94 18.18 3.11 35.396-3.943 46.173-9.638 126.078 42.8 232.793 29.044 285.931 16.734 9.9-2.322 20.458-5.826 31.016-9.375 16.428-5.564 37.236-12.398 46.261-9.243 30.14 10.163 56.599 1.446 59.447 0.438 24.576-10.514 33.688-26.504 37.193-38.2 6.659-21.904-1.139-44.158-7.097-56.687 50.379-146.142 71.581-286.764 63.17-418.055-0.789-12.091-12.573-21.772-23.306-20.458-12.047 0.789-21.203 11.215-20.414 23.306 8.236 128.093-13.274 265.999-64.003 409.863-2.278 6.396-1.402 13.493 2.234 19.188 3.636 5.739 10.339 20.852 7.491 30.227-0.526 1.621-1.928 6.045-11.127 9.988 0.307-0.131-4.030 1.489-13.011 1.489-4.863 0-10.645-0.657-16.472-2.628-23.525-7.973-49.371 0.832-74.385 9.287-9.156 3.067-18.268 6.221-26.898 8.192-49.765 11.565-151.18 24.401-271.256-18.793-6.834-2.541-14.588-1.314-20.458 3.023-5.388 3.899-16.472 9.068-23.437 8.148-1.621-0.307-3.417-1.008-5.695-4.249-0.876-1.314-1.971-2.541-3.11-3.636 1.183 1.095 1.227-1.928 4.906-6.746 4.819-6.44 5.783-15.026 2.409-22.386-0.789-1.621-75.568-165.811-70.004-342.399 0 0 2.059-43.457 8.192-97.515 1.402-12.003-7.272-22.868-19.275-24.269-0.832-0.088-1.665-0.131-2.497-0.131zM392.274 248.764c-43.501 0-74.429 16.077-76.313 17.129-10.733 5.739-14.719 18.969-9.068 29.658 5.783 10.733 18.969 14.632 29.57 9.068 2.366-1.227 53.182-26.81 111.359 0.394 10.952 5.169 23.963 0.438 29.088-10.47 5.169-10.952 0.438-24.007-10.47-29.176-26.547-12.441-51.956-16.603-74.166-16.603zM625.418 249.684c-41.88 0-73.509 14.851-75.524 15.815-10.908 5.213-15.464 18.312-10.207 29.22 5.213 10.864 18.355 15.42 29.132 10.251 0.92-0.35 58.264-26.591 111.841 1.928 10.601 5.695 23.919 1.665 29.658-9.068 5.651-10.689 1.621-23.963-9.068-29.614-26.241-14.018-52.613-18.531-75.831-18.531zM512-17.455v0c257.063 0 465.455 208.391 465.455 465.455s-208.391 465.455-465.455 465.455c-257.063 0-465.455-208.391-465.455-465.455s208.391-465.455 465.455-465.455v0zM512-64v0c-282.77 0-512 229.23-512 512s229.23 512 512 512c282.77 0 512-229.23 512-512s-229.23-512-512-512v0z" />
<glyph unicode="&#xe923;" glyph-name="home_btn_jiantou_down" horiz-adv-x="1536" d="M768-63.176l768 1023.176h-1536z" />
<glyph unicode="&#xe924;" glyph-name="home_btn_jiantou_up" horiz-adv-x="1536" d="M768 960l768-1023.176h-1536z" />
<glyph unicode="&#xe925;" glyph-name="jdxq_btn_daohang" horiz-adv-x="717" d="M368.64 934.4c-189.44 0-343.040-153.6-343.040-343.040 0-61.44 15.36-117.76 46.080-168.96l276.48-476.16c0-10.24 10.24-15.36 20.48-15.36s15.36 5.12 20.48 10.24l276.48 476.16c30.72 51.2 46.080 112.64 46.080 168.96 0 194.56-153.6 348.16-343.040 348.16zM619.52 448l-250.88-435.2-250.88 435.2c-25.6 40.96-40.96 92.16-40.96 143.36 0 158.72 133.12 291.84 291.84 291.84s291.84-133.12 291.84-291.84c0-51.2-15.36-102.4-40.96-143.36zM368.64 729.6c-76.8 0-138.24-61.44-138.24-138.24s61.44-138.24 138.24-138.24c76.8 0 138.24 61.44 138.24 138.24s-61.44 138.24-138.24 138.24zM368.64 504.32c-46.080 0-87.040 35.84-87.040 87.040s35.84 87.040 87.040 87.040 87.040-35.84 87.040-87.040-40.96-87.040-87.040-87.040z" />
<glyph unicode="&#xe926;" glyph-name="jdxq_icon_jbtj" horiz-adv-x="731" d="M645.626 381.043l-181.504 26.368c-12.928 1.856-28.224 12.992-33.984 24.704l-81.152 164.48c-5.76 11.648-15.232 11.648-20.992 0l-81.216-164.48c-5.76-11.712-21.056-22.848-33.92-24.704l-181.504-26.368c-12.928-1.856-15.872-10.88-6.528-19.968l131.328-128c9.344-9.152 15.232-27.072 12.992-39.936l-30.976-180.8c-2.24-12.864 5.44-18.432 16.96-12.352l162.368 85.376c11.52 6.080 30.4 6.080 41.984 0l162.304-85.376c11.584-6.080 19.2-0.512 17.024 12.352l-31.040 180.8c-2.176 12.864 3.648 30.784 12.992 39.936l131.328 128c9.344 9.088 6.464 18.112-6.464 19.968zM553.094 730.611l123.84 165.376h-74.176l-129.664-177.6 16-21.376h50.048v-96.64h33.664v130.24h-19.712zM530.227 896.006l-93.888-128.576 23.744-31.616 116.928 160.192h-46.784zM434.438 896.006h-55.552l-19.392-25.856 28.608-38.272 46.336 64.128zM0 896.006l120.064-160.384v-56.064l-0.128 0.192v-20.416h0.128v-59.008h33.664v97.6h292.672l-148.288 198.080h-298.112zM423.315 784.864l81.152 111.168h-44.352l-58.88-81.664 22.080-29.504z" />
<glyph unicode="&#xe927;" glyph-name="home_icon_yikoujia" horiz-adv-x="4608" d="M45.945 400.556h1431.754l22.745 122.766h-1431.754zM1679.158 917.778l-178.593-964.836h1384.217l178.593 964.836h-1384.217zM1943.317 785.341h806.798l-129.492-699.961h-806.798l129.492 699.961zM4116.593 494.764l-102.294-552.619h254.050l102.294 552.619zM3430.55 959.967l-226.009-285.127h-70.763l13.479-152.804h69.319l-107.228-579.925h230.823l125.521 678.116h-35.983l263.437 339.74zM3610.022 494.764l-159.699-552.619h247.912l151.395 552.619zM3744.978 943.685l-255.253-420.409h239.488l245.265 420.409zM4008.39 939.589l-74.133-135.168h293.042l44.648-281.145h255.494l-90.38 416.313z" />
<glyph unicode="&#xe928;" glyph-name="icon-jdxq_icon_pingfen" horiz-adv-x="1170" d="M1051.035 917.392h-927.735c-45.376 0-82.286-36.213-82.286-80.733v-641.174c0-44.52 36.91-80.733 82.286-80.733h558.747l128.722-125.612c6.985-6.826 16.311-10.441 25.801-10.441 4.754 0 9.554 0.915 14.117 2.79 13.669 5.615 22.519 18.757 22.446 33.289l-0.567 99.356 178.469 0.619c45.376 0 82.286 36.213 82.286 80.733v641.174c0 44.52-36.91 80.733-82.286 80.733v0zM1060.178 195.485c0-4.952-4.096-8.97-9.271-8.97l-215.241-0.745c-9.71-0.036-19.008-3.857-25.847-10.63-6.83-6.764-10.642-15.922-10.587-25.449l0.265-48.341-76.571 74.714c-6.848 6.692-16.119 10.45-25.783 10.45h-573.842c-5.038 0-9.143 4.019-9.143 8.97v641.174c0 4.943 4.105 8.97 9.143 8.97h927.735c5.047 0 9.143-4.028 9.143-8.97v-641.174zM418.186 538.558c0-37.51-32.035-67.918-71.553-67.918s-71.553 30.408-71.553 67.918c0 37.51 32.035 67.918 71.553 67.918s71.553-30.408 71.553-67.918zM656.696 538.558c0-37.51-32.035-67.918-71.553-67.918s-71.553 30.408-71.553 67.918c0 37.51 32.035 67.918 71.553 67.918s71.553-30.408 71.553-67.918zM895.205 538.558c0-37.51-32.035-67.918-71.553-67.918s-71.553 30.408-71.553 67.918c0 37.51 32.035 67.918 71.553 67.918s71.553-30.408 71.553-67.918z" />
<glyph unicode="&#xe929;" glyph-name="ydcg_btn_home" horiz-adv-x="1126" d="M1080.802 449.515l-506.528 495.289c-6.66 6.512-15.691 10.177-25.113 10.177s-18.453-3.664-25.113-10.177l-506.528-495.289c-13.88-13.554-13.88-35.557 0-49.111 13.871-13.572 36.364-13.572 50.227 0l481.414 470.725 481.414-470.725c6.935-6.79 16.029-10.177 25.113-10.177s18.187 3.386 25.113 10.177c13.88 13.554 13.88 35.557 0 49.111zM910.551 442.117c-19.616 0-35.521-15.551-35.521-34.732v-360.589h-184.193v233.982c0 19.181-15.904 34.732-35.521 34.732h-215.363c-19.616 0-35.521-15.551-35.521-34.732v-233.982h-181.139v360.589c0 19.181-15.904 34.732-35.521 34.732s-35.521-15.551-35.521-34.732v-395.321c0-19.181 15.904-34.732 35.521-34.732h252.18c19.616 0 35.521 15.551 35.521 34.732v233.982h144.321v-233.982c0-19.181 15.904-34.732 35.521-34.732h255.235c19.616 0 35.521 15.551 35.521 34.732v395.321c0 19.181-15.904 34.732-35.521 34.732z" />
<glyph unicode="&#xe92a;" glyph-name="phb_icon_huangguan" horiz-adv-x="1280" d="M959.998 0h-639.996l-222.618 534.272c-54.494 4.764-97.384 49.994-97.384 105.725 0 58.914 47.753 106.666 106.668 106.666 58.907 0 106.666-47.752 106.666-106.666 0-22.636-7.147-43.53-19.17-60.791 37.664-59.493 103.497-99.207 179.169-99.207 99.297 0 181.993 68.15 205.793 159.999l1.587 8.975 5.954 112.485c-31.748 18.481-53.337 52.494-53.337 91.874 0 58.914 47.76 106.668 106.668 106.668 58.913 0 106.666-47.753 106.666-106.668 0-39.38-21.577-73.393-53.331-91.874l3.726-110.761 3.817-10.699c23.792-91.849 106.501-159.999 205.787-159.999 75.67 0 141.505 39.714 179.167 99.201-12.017 17.268-19.164 38.162-19.164 60.798 0 58.914 47.753 106.666 106.668 106.666 58.908 0 106.666-47.752 106.666-106.666 0-55.731-42.89-100.961-97.384-105.725l-222.618-534.272z" />
<glyph unicode="&#xe92b;" glyph-name="pj_pic_null" horiz-adv-x="1176" d="M310.993-56.415c-1.896 0-1.896 0-3.793 0-3.793 1.896-5.689 5.689-5.689 9.481v144.119h-229.452c-32.237 0-60.681 26.548-60.681 60.681v726.281c0 34.133 26.548 60.681 60.681 60.681h1029.689c34.133 0 60.681-26.548 60.681-60.681v-726.281c0-34.133-26.548-60.681-60.681-60.681h-631.467l-151.704-151.704c-1.896 0-5.689-1.896-7.585-1.896zM72.059 923.97c-22.756 0-41.719-18.963-41.719-41.719v-726.281c0-22.756 18.963-41.719 41.719-41.719h238.933c1.896 0 5.689-1.896 7.585-1.896 1.896-1.896 1.896-3.793 1.896-7.585v-130.844l138.43 138.43c1.896 1.896 3.793 1.896 7.585 1.896h637.156c22.756 0 41.719 18.963 41.719 41.719v728.178c0 22.756-18.963 41.719-41.719 41.719h-1031.585zM917.807 425.244h-659.911c-5.689 0-9.481 3.793-9.481 9.481s3.793 9.481 9.481 9.481h658.015c5.689 0 9.481-3.793 9.481-9.481s-3.793-9.481-7.585-9.481zM917.807 628.148h-659.911c-5.689 0-9.481 3.793-9.481 9.481s3.793 9.481 9.481 9.481h658.015c5.689 0 9.481-3.793 9.481-9.481s-3.793-9.481-7.585-9.481z" />
<glyph unicode="&#xe92c;" glyph-name="home_btn_gerenzhongxin2" d="M523.605 420.238c-102.4 0-186.14 83.74-186.14 186.14s83.74 186.14 186.14 186.14 186.14-83.74 186.14-186.14-83.74-186.14-186.14-186.14zM523.605 741.319c-74.411 0-139.719-60.53-139.719-139.719s60.53-139.719 139.719-139.719 139.719 60.53 139.719 139.719-60.53 139.719-139.719 139.719zM830.805 66.162c-13.881 0-23.211 9.33-23.211 23.211 0 162.93-134.94 297.87-297.87 297.87s-297.87-134.94-297.87-297.643c0-13.881-9.33-23.211-23.211-23.211s-18.66 13.881-18.66 23.211c0 190.919 153.6 344.519 344.519 344.519s344.519-153.6 344.519-344.519c-4.779-9.33-14.108-23.438-28.217-23.438zM1021.724 448c0 279.438-228.011 507.449-507.449 507.449s-507.449-228.011-507.449-507.449 228.011-507.449 507.449-507.449 507.449 228.238 507.449 507.449zM514.276-12.8c-256 0-460.8 204.8-460.8 460.8s204.8 460.8 460.8 460.8 460.8-204.8 460.8-460.8c0-251.221-204.8-460.8-460.8-460.8z" />
<glyph unicode="&#xe92d;" glyph-name="grzx_icon_shuime" horiz-adv-x="1268" d="M638.781-24.99c-321.829 0-536.381 297.448-565.638 380.343-4.876 9.752 0 19.505 4.876 24.381s14.629 9.752 24.381 4.876c0 0 39.010-14.629 92.648-14.629 58.514 0 112.152 14.629 156.038 48.762 121.905 87.771 219.429 190.171 292.571 268.19 43.886 48.762 131.657 146.286 112.152 199.924-4.876 9.752 0 24.381 9.752 29.257s19.505 4.876 29.257 0c4.876-4.876 24.381-19.505 34.133-39.010 9.752 9.752 14.629 19.505 24.381 24.381 9.752 9.752 24.381 9.752 29.257 4.876 9.752-4.876 9.752-14.629 9.752-24.381-4.876-9.752-4.876-24.381-4.876-34.133 34.133 4.876 102.4 0 175.543-53.638 87.771-63.39 112.152-190.171 117.029-234.057 19.505-9.752 53.638-24.381 63.39-53.638 4.876-9.752 0-14.629-4.876-24.381s-14.629-14.629-19.505-14.629c-9.752 0-24.381 0-34.133-4.876-9.752-68.267-58.514-370.59-404.724-468.114-48.762-9.752-92.648-19.505-141.41-19.505zM141.41 330.971c68.267-102.4 248.686-302.324 497.371-302.324 43.886 0 87.771 4.876 131.657 19.505 351.086 102.4 370.59 433.981 370.59 438.857s4.876 14.629 9.752 19.505c4.876 4.876 9.752 9.752 19.505 9.752-4.876 0-9.752 4.876-14.629 4.876-9.752 4.876-14.629 9.752-14.629 19.505 0 0-14.629 156.038-97.524 214.552-53.638 39.010-97.524 43.886-131.657 43.886-19.505 0-29.257-4.876-29.257-4.876-9.752 0-19.505 0-24.381 9.752-4.876 4.876-4.876 9.752-9.752 14.629-9.752-4.876-19.505-4.876-24.381-4.876-9.752 0-19.505 9.752-19.505 19.505 0 0 0 4.876-4.876 4.876-14.629-58.514-68.267-121.905-121.905-180.419-73.143-78.019-175.543-185.295-297.448-273.067-58.514-39.010-117.029-58.514-190.171-58.514-19.505 0-34.133 0-48.762 4.876zM199.924 423.619c-43.886 0-82.895 14.629-117.029 34.133-43.886 29.257-58.514 68.267-48.762 107.276 9.752 29.257 34.133 48.762 58.514 48.762 29.257 0 58.514-14.629 82.895-58.514l4.876-9.752c9.752-19.505 24.381-58.514 73.143-68.267 9.752 0 19.505-9.752 19.505-24.381 0-9.752-4.876-19.505-14.629-24.381-4.876 0-29.257-4.876-58.514-4.876zM92.648 565.029c-4.876 0-9.752-4.876-14.629-14.629 0-14.629 9.752-34.133 34.133-53.638 14.629-9.752 34.133-19.505 53.638-24.381-14.629 19.505-24.381 43.886-29.257 53.638l-4.876 9.752c-9.752 19.505-19.505 29.257-39.010 29.257v0zM945.981 545.524c-34.133 0-58.514 14.629-78.019 34.133-14.629 14.629-14.629 39.010 0 53.638s39.010 14.629 53.638 0c0 0 9.752-9.752 19.505-9.752s14.629 4.876 24.381 9.752c14.629 14.629 39.010 14.629 53.638-4.876 14.629-14.629 14.629-39.010-4.876-53.638s-43.886-29.257-68.267-29.257zM492.495 243.2c0 0 0 0 0 0-78.019 0-136.533 24.381-136.533 24.381-9.752 4.876-14.629 14.629-14.629 24.381s9.752 19.505 24.381 19.505c102.4 4.876 146.286 68.267 165.79 97.524 4.876 4.876 4.876 9.752 9.752 9.752 34.133 43.886 78.019 68.267 131.657 68.267 0 0 4.876 0 4.876 0 39.010 0 73.143-34.133 82.895-73.143 4.876-19.505 9.752-92.648-102.4-141.41-58.514-19.505-112.152-29.257-165.79-29.257zM468.114 291.962c4.876 0 14.629 0 24.381 0 0 0 0 0 0 0 48.762 0 92.648 9.752 136.533 29.257 53.638 24.381 82.895 58.514 78.019 87.771-4.876 19.505-19.505 34.133-34.133 34.133 0 0 0 0 0 0-39.010 0-68.267-14.629-97.524-48.762 0-4.876-4.876-4.876-4.876-9.752-19.505-24.381-48.762-68.267-102.4-92.648z" />
<glyph unicode="&#xe92e;" glyph-name="qrcode" d="M320 896h-256v-256h256v256zM384 960v0-384h-384v384h384zM128 832h128v-128h-128zM960 896h-256v-256h256v256zM1024 960v0-384h-384v384h384zM768 832h128v-128h-128zM320 256h-256v-256h256v256zM384 320v0-384h-384v384h384zM128 192h128v-128h-128zM448 960h64v-64h-64zM512 896h64v-64h-64zM448 832h64v-64h-64zM512 768h64v-64h-64zM448 704h64v-64h-64zM512 640h64v-64h-64zM448 576h64v-64h-64zM448 448h64v-64h-64zM512 384h64v-64h-64zM448 320h64v-64h-64zM512 256h64v-64h-64zM448 192h64v-64h-64zM512 128h64v-64h-64zM448 64h64v-64h-64zM512 0h64v-64h-64zM960 448h64v-64h-64zM64 448h64v-64h-64zM128 512h64v-64h-64zM0 512h64v-64h-64zM256 512h64v-64h-64zM320 448h64v-64h-64zM384 512h64v-64h-64zM576 448h64v-64h-64zM640 512h64v-64h-64zM704 448h64v-64h-64zM768 512h64v-64h-64zM832 448h64v-64h-64zM896 512h64v-64h-64zM960 320h64v-64h-64zM576 320h64v-64h-64zM640 384h64v-64h-64zM704 320h64v-64h-64zM832 320h64v-64h-64zM896 384h64v-64h-64zM960 192h64v-64h-64zM576 192h64v-64h-64zM640 256h64v-64h-64zM768 256h64v-64h-64zM832 192h64v-64h-64zM896 256h64v-64h-64zM960 64h64v-64h-64zM640 128h64v-64h-64zM704 64h64v-64h-64zM768 128h64v-64h-64zM832 64h64v-64h-64zM640 0h64v-64h-64zM768 0h64v-64h-64zM896 0h64v-64h-64z" />
<glyph unicode="&#xe92f;" glyph-name="invite-code" d="M511.807 813.769c-201.902 0-365.577-163.674-365.577-365.577s163.675-365.576 365.577-365.576 365.577 163.674 365.577 365.576c0 201.903-163.675 365.577-365.577 365.577zM1023.614 448.192c0-282.663-229.144-511.807-511.807-511.807s-511.807 229.144-511.807 511.807c0 282.664 229.144 511.808 511.807 511.808s511.807-229.144 511.807-511.808zM430.188 428.047h-126.317c0 0-79.217 0-79.217-79.573s79.217-80.286 79.217-80.286h126.317v-151.653c0 0 0-74.221 83.855-74.221 72.437 0 75.648 74.934 75.648 74.934l0.009 150.939 123.454 0.356c0 0 79.216 1.367 79.216 79.899s-79.216 79.604-79.216 79.604h-123.107v37.824h123.107c0 0 83.14 0 84.568 78.86 1.22 67.438-59.947 78.145-59.947 78.145l44.959 46.388c0 0 41.281 55.777-7.85 102.053-57.205 53.881-105.806 7.334-105.806 7.334l-155.035-152.92-154.32 153.436c0 0-45.505 43.533-107.235-7.85-50.698-42.201 0-109.903 0-109.903l37.824-38.538c0 0-59.233-10.704-60.304-78.145s67.084-78.502 73.863-78.86c2.68-0.141 88.136 0 126.317 0v-37.824z" />
<glyph unicode="&#xe930;" glyph-name="time" d="M506.946-53.899c-279.527 0-506.946 227.418-506.946 506.954 0 279.527 227.418 506.946 506.946 506.946 279.536 0 506.954-227.418 506.954-506.946 0-279.536-227.418-506.954-506.954-506.954v0zM506.946 894.464c-243.393 0-441.41-198.017-441.41-441.41 0-243.401 198.017-441.418 441.41-441.418 243.401 0 441.418 198.017 441.418 441.418 0 243.393-198.017 441.41-441.418 441.41v0zM516.618 403.316v0l-158.040 0.025c-18.096 0-32.768 14.672-32.76 32.776 0 18.096 14.672 32.76 32.768 32.76l125.264-0.016v278.839c0 18.096 14.68 32.768 32.768 32.768 18.096 0 32.768-14.672 32.768-32.768v-311.615c0-8.684-3.449-17.023-9.593-23.175-6.144-6.144-14.483-9.593-23.175-9.593z" />
<glyph unicode="&#xe931;" glyph-name="ticket" horiz-adv-x="1451" d="M443.209 267.457h508.329v366.186h-508.329v-366.186zM990.193 188.307h-585.625c-21.343 0-38.642 17.716-38.642 39.575v445.323c0 21.859 17.299 39.575 38.642 39.575h585.625c21.33 0 38.642-17.716 38.642-39.575v-445.323c0-21.859-17.311-39.575-38.642-39.575v0zM105.727 80.386h1207.032v159.619c-2.808-0.106-5.706-0.158-8.681-0.158-113.529 0-181.306 73.86-181.306 197.558 0 151.202 96.32 214.786 189.987 226.157v160.397h-1207.032v-163.55c59.315-12.347 166.249-55.748 166.249-208.23 0-104.636-52.295-155.49-96.179-179.71-24.795-13.706-49.989-20.605-70.070-24.075v-168.009zM1351.401 1.237h-1284.315c-21.343 0-38.642 17.716-38.642 39.575v243.768c0 10.725 4.238 20.975 11.747 28.428 7.522 7.453 17.543 11.464 28.105 11.134 4.289 0 39.17 0.514 70.83 17.993 37.392 20.645 55.566 56.645 55.566 110.045 0 129.753-114.675 133.921-127.749 133.974-21.291 0.079-38.5 17.769-38.5 39.575v237.805c0 21.859 17.299 39.575 38.642 39.575h1284.315c21.343 0 38.642-17.716 38.642-39.575v-237.805c0-10.962-4.431-21.436-12.249-28.916s-18.303-11.279-28.994-10.566c-0.27 0.013-1.893 0.079-4.431 0.079-130.248 0-144.313-104.148-144.313-148.92 0-80.786 33.051-118.408 104.023-118.408 21.588 0 37.946 3.984 38.113 4.023 11.489 2.876 23.739 0.145 33.038-7.361 9.313-7.506 14.813-18.943 14.813-31.079v-243.768c0-21.859-17.299-39.575-38.642-39.575v0z" />
<glyph unicode="&#xe932;" glyph-name="thumb" d="M212.424-49.967c-19.17 0-34.712 15.81-34.712 35.31v505.953c0 19.5 15.542 35.31 34.712 35.31s34.712-15.81 34.712-35.31v-505.953c0-19.5-15.542-35.31-34.712-35.31zM69.424 9.128h706.378c85.877 0 93.332 44.085 93.384 44.535 0.104 0.927 0.243 1.863 0.425 2.781l83.109 426.169c-15.993 37.146-46.106 42.955-63.367 42.955-1.102 0-1.874-0.035-2.222-0.062-1.137-0.115-1.848-0.132-2.985-0.132h-289.818c-11.689 0-22.606 5.994-29.019 15.943-6.422 9.949-7.48 22.519-2.82 33.43 75.984 178.061 58.828 250.386 41.828 277.654-16.783 26.924-44.752 28.116-45.932 28.16-37.975-0.009-44.665-35.981-45.82-48.587-0.989-275.783-279.708-359.539-282.529-360.351-3.098-0.892-6.283-1.351-9.494-1.351h-151.118v-461.144zM775.801-61.493h-741.090c-19.17 0-34.712 15.81-34.712 35.31v531.765c0 19.5 15.542 35.31 34.712 35.31h180.615c32.577 10.717 227.814 83.668 227.814 292.564 0 0.715 0.026 1.421 0.069 2.136 2.777 46.46 35.857 115.58 115.651 115.58h0.095c24.029 0 72.669-12.429 102.799-59.065 39.953-61.864 34.616-161.333-15.785-296.113h236.856c1.475 0.097 3.688 0.194 6.526 0.194 47.946 0 107.85-26.033 132.244-99.107 1.944-5.87 2.352-12.147 1.172-18.22l-84.888-435.262c-1.215-7.98-6.535-32.079-27.865-55.764-20.28-22.502-60.025-49.329-134.213-49.329v0z" />
<glyph unicode="&#xe933;" glyph-name="pen" d="M95.607 243.446c-6.018-14.763-17.912-78.635-28.076-235.23 154.271 5.427 217.441 15.522 232.146 21.18l645.447 636.041c4.977 4.898 4.172 14.592 3.592 18.526-1.838 12.459-8.981 26.001-19.615 37.154l-133.8 140.348c-15.276 16.026-32.021 21.734-42.588 21.734-3.601 0-8.536-0.64-11.65-3.712l-645.456-636.041zM61.622-60.264c-16.972 0-33.356 7.219-44.964 19.806s-17.626 29.687-16.527 46.925c16.157 253.892 35.001 272.452 46.256 283.546l647.949 638.49c15.016 14.814 35.748 22.963 58.376 22.963 31.962 0 65.058-15.488 90.8-42.487l133.8-140.348c20.463-21.47 33.893-47.94 37.812-74.564 4.465-30.379-4.012-58.675-23.267-77.645l-647.932-638.49c-11.272-11.102-30.132-29.679-280.223-38.161l-2.082-0.034zM889.64 530.755l-284.882 289.63 47.482 48.273 284.882-289.638zM108.308-39.204l-91.891 93.423 47.482 48.265 91.891-93.423zM508.157 411.471c-8.872 0-17.735 3.558-24.333 10.607-12.775 13.662-12.246 35.268 1.192 48.256l262.782 254.106c13.438 12.988 34.69 12.442 47.473-1.212 12.775-13.653 12.246-35.268-1.192-48.256l-262.79-254.097c-6.497-6.289-14.823-9.404-23.132-9.404z" />
<glyph unicode="&#xe934;" glyph-name="fav" horiz-adv-x="1195" d="M314.487 960c-171.488 0-311.018-134.069-311.018-298.859 0-77.44 30.803-150.891 86.726-206.848l505.34-488.032 496.382 479.381c61.962 57.163 95.684 133.461 95.684 215.499 0 164.789-139.519 298.859-311.007 298.859-97.138 0-186.784-42.197-245.915-115.776-8.414-10.464-21.379-16.587-35.143-16.587-13.753 0-26.729 6.123-35.143 16.587-59.131 73.579-148.766 115.776-245.904 115.776v0z" />
<glyph unicode="&#xe935;" glyph-name="uniE935" horiz-adv-x="1463" d="M1363.518-60.467h-1263.626c-54.224 0-98.331 45.939-98.331 102.4v803.11c0 38.579 20.48 73.498 53.437 91.136 13.793 7.373 29.319 11.277 44.894 11.277h1263.626c54.236 0 98.343-45.939 98.343-102.413v-803.11c0-56.461-44.107-102.4-98.343-102.4v0zM99.892 870.656c-3.958 0-7.72-0.947-11.187-2.79-8.273-4.429-13.387-13.171-13.387-22.822v-803.11c0-14.106 11.014-25.6 24.574-25.6h1263.626c13.559 0 24.586 11.494 24.586 25.6v803.11c0 14.118-11.027 25.613-24.586 25.613h-1263.626z" />
<glyph unicode="&#xe936;" glyph-name="uniE936" horiz-adv-x="1463" d="M731.711 443.494v0z" />
<glyph unicode="&#xe937;" glyph-name="uniE937" horiz-adv-x="1463" d="M731.748 405.082c-12.404 0-24.524 6.515-31.482 18.342-3.688 6.246-5.433 13.158-5.446 20.006 0 12.915 6.257 25.549 17.628 32.794l683.523 436.070c17.394 11.098 40.087 5.414 50.721-12.672 3.676-6.246 5.421-13.158 5.433-19.994 0-12.928-6.257-25.549-17.616-32.806l-683.535-436.070c-6.011-3.84-12.662-5.67-19.226-5.67z" />
<glyph unicode="&#xe938;" glyph-name="uniE938" horiz-adv-x="1463" d="M731.674 405.082c-6.552 0-13.19 1.818-19.189 5.645l-684.089 435.2c-17.382 11.046-22.865 34.688-12.256 52.787 10.621 18.074 33.326 23.795 50.708 12.736l684.089-435.2c17.382-11.046 22.865-34.688 12.244-52.787-6.945-11.84-19.079-18.381-31.507-18.381z" />
<glyph unicode="&#xe939;" glyph-name="bell" horiz-adv-x="945" d="M436.146 8.879c-31.879 0-58.389 22.878-63.281 52.715h126.57c-4.883-29.838-31.41-52.715-63.289-52.715zM510.385 128.196h-148.47c-31.99 0-58.023-25.433-58.023-56.686 0-71.255 59.327-129.232 132.254-129.232s132.262 57.977 132.262 129.232c0 31.253-26.033 56.686-58.023 56.686zM802.753 216.042c-2.062-3.721-6.008-6.036-10.302-6.036h-712.602c-4.286 0-8.215 2.273-10.234 5.894-2.062 3.721-1.909 8.234 0.392 11.722l78.713 119.358v258.048c0 154.424 128.572 280.043 286.604 280.043 158.065 0 286.655-125.619 286.655-280.043v-257.998l80.264-119.375c2.352-3.48 2.531-7.951 0.511-11.614zM859.2 264.253l-69.050 102.7v238.076c0 191.147-159.173 346.645-354.827 346.645-195.62 0-354.776-155.498-354.776-346.645v-238.459l-67.874-102.916c-15.765-23.985-16.907-54.463-2.948-79.572 13.992-25.092 40.861-40.677 70.123-40.677h712.602c29.34 0 56.259 15.685 70.268 40.96 13.984 25.3 12.62 55.92-3.519 79.889z" />
<glyph unicode="&#xe93a;" glyph-name="msg" horiz-adv-x="1195" d="M909.921 464.68c-41.236 0-74.667 32.828-74.667 73.32s33.43 73.32 74.667 73.32c41.236 0 74.667-32.828 74.667-73.32s-33.43-73.32-74.667-73.32zM596.068 464.68c-41.236 0-74.667 32.828-74.667 73.32s33.43 73.32 74.667 73.32c41.236 0 74.667-32.828 74.667-73.32s-33.43-73.32-74.667-73.32zM282.215 464.68c-41.236 0-74.667 32.828-74.667 73.32s33.43 73.32 74.667 73.32c41.236 0 74.667-32.828 74.667-73.32s-33.43-73.32-74.667-73.32zM1108.327 959.998h-1027.332c-44.658 0-80.994-35.681-80.994-79.534v-710.606c0-43.853 36.336-79.534 80.883-79.534l207.912-0.726-0.668-120.066c-0.071-12.079 7.289-23.005 18.639-27.678 3.786-1.561 7.765-2.316 11.724-2.316 7.877 0 15.622 3.012 21.423 8.679l145.506 142.107h622.907c44.658 0 80.994 35.681 80.994 79.534v710.606c0 43.853-36.336 79.534-80.994 79.534z" />
<glyph unicode="&#xe93b;" glyph-name="people" horiz-adv-x="1170" d="M449.132 848.248c-104.138 0-188.865-82.441-188.865-183.787 0-101.339 84.726-183.794 188.865-183.794 104.146 0 188.872 82.455 188.872 183.794 0 101.346-84.726 183.787-188.872 183.787zM449.132 424.675c-135.871 0-246.404 107.575-246.404 239.786 0 132.218 110.533 239.779 246.404 239.779s246.411-107.561 246.411-239.779c0-132.211-110.54-239.786-246.411-239.786zM869.296-28.317c-15.888 0-28.77 12.535-28.77 27.996 0 203.524-170.157 369.107-379.305 369.107s-379.305-165.583-379.305-369.107c0-15.461-12.882-27.996-28.77-27.996s-28.77 12.535-28.77 27.996c0 234.397 195.964 425.099 436.844 425.099 240.873 0 436.844-190.702 436.844-425.099 0-15.461-12.882-27.996-28.77-27.996zM732.213 404.084c-15.888 0-28.77 12.535-28.77 27.996s12.882 27.996 28.77 27.996c104.138 0 188.872 82.448 188.872 183.794 0 101.339-84.733 183.794-188.872 183.794-15.888 0-28.77 12.535-28.77 27.996s12.882 27.996 28.77 27.996c135.871 0 246.411-107.575 246.411-239.786 0-132.218-110.54-239.786-246.411-239.786zM1140.296-1.845c-15.888 0-28.77 12.535-28.77 27.996 0 203.524-170.157 369.107-379.312 369.107-15.888 0-28.77 12.535-28.77 27.996s12.882 27.996 28.77 27.996c240.88 0 436.851-190.702 436.851-425.099 0-15.461-12.882-27.996-28.77-27.996z" />
<glyph unicode="&#xe93c;" glyph-name="alert" horiz-adv-x="1092" d="M542.014 291.996c-31.882 0-57.732-25.939-57.732-57.93s25.85-57.93 57.732-57.93c31.882 0 57.732 25.939 57.732 57.93s-25.85 57.93-57.732 57.93zM542.014 260.227c14.374 0 26.072-11.739 26.072-26.162s-11.698-26.162-26.072-26.162c-14.374 0-26.072 11.739-26.072 26.162s11.698 26.162 26.072 26.162zM542.014 668.542c-31.882 0-57.732-25.939-57.732-57.93v-217.235c0-31.999 25.85-57.93 57.732-57.93s57.732 25.931 57.732 57.93v217.235c0 31.991-25.85 57.93-57.732 57.93zM542.014 636.773c14.374 0 26.072-11.739 26.072-26.162v-217.235c0-14.431-11.698-26.162-26.072-26.162s-26.072 11.731-26.072 26.162v217.235c0 14.423 11.698 26.162 26.072 26.162zM535.831 888.52c-23.602 0-44.735-12.239-56.537-32.738l-408.286-709.602c-10.115-17.6-10.115-38.607 0.008-56.207s28.256-28.099 48.503-28.099h844.33c22.13 0 41.823 11.548 52.69 30.895s10.519 42.237-0.942 61.234l-423.958 702.931c-11.928 19.784-32.784 31.586-55.808 31.586zM963.849-1.663h-844.33c-43.137 0-81.77 22.381-103.338 59.868s-21.576 82.257-0.008 119.744l408.286 709.602c23.246 40.394 64.879 64.506 111.372 64.506 45.369 0 86.487-23.263 109.987-62.219l423.95-702.939c23.452-38.877 24.18-85.736 1.931-125.328-22.241-39.592-62.56-63.236-107.849-63.236z" />
<glyph unicode="&#xe93d;" glyph-name="ticket_null" horiz-adv-x="1792" d="M427.955 168.832v554.291h905.958v-554.291h-905.958zM1792 960h-1792v-296.013c0 0 210.816-0.742 210.816-215.987 0-202.701-186.957-208.614-208.742-208.614-1.357 0-2.074 0.026-2.074 0.026v-303.411h1792v303.411c0 0-25.574-6.426-60.006-6.426-71.373 0-180.915 27.52-180.915 196.659 0 221.747 188.365 234.573 231.987 234.573 5.709 0 8.934-0.23 8.934-0.23v296.013zM402.355 143.232h957.184v605.491h-957.184v-605.491zM1766.4 934.4v-245.12c-65.331-3.994-240.922-35.635-240.922-259.635 0-141.261 75.264-222.259 206.515-222.259 12.8 0 24.525 0.819 34.406 1.894v-247.68h-1740.8v253.312c87.629 8.32 210.816 64.026 210.816 233.088 0 190.387-149.709 230.758-210.816 239.309v247.091h1740.8z" />
</font>
</defs>
</svg>
